{
  "accessors": [
    {
      "bufferView": 2,
      "componentType": 5126,
      "count": 65532,
      "max": [
        6.521575927734375,
        0.04895509034395218,
        4.992832183837891
      ],
      "min": [
        -8.456002235412598,
        -3.0737063884735107,
        -4.271777629852295
      ],
      "type": "VEC3"
    },
    {
      "bufferView": 2,
      "byteOffset": 786384,
      "componentType": 5126,
      "count": 65532,
      "max": [
        0.9999997615814209,
        1.0,
        0.9999995231628418
      ],
      "min": [
        -0.9999991655349731,
        -1.0,
        -1.0
      ],
      "type": "VEC3"
    },
    {
      "bufferView": 1,
      "componentType": 5126,
      "count": 65532,
      "max": [
        0.9998779892921448,
        0.9774169921875
      ],
      "min": [
        0.00012199999764561653,
        0.00012199999764561653
      ],
      "type": "VEC2"
    },
    {
      "bufferView": 0,
      "componentType": 5125,
      "count": 251157,
      "type": "SCALAR"
    },
    {
      "bufferView": 2,
      "byteOffset": 1572768,
      "componentType": 5126,
      "count": 65532,
      "max": [
        6.468611240386963,
        0.010382127948105335,
        4.92659330368042
      ],
      "min": [
        -8.452291488647461,
        -3.0113720893859863,
        -3.7602691650390625
      ],
      "type": "VEC3"
    },
    {
      "bufferView": 2,
      "byteOffset": 2359152,
      "componentType": 5126,
      "count": 65532,
      "max": [
        0.9999999403953552,
        0.999995768070221,
        0.9999995231628418
      ],
      "min": [
        -0.999998927116394,
        -1.0,
        -0.999999463558197
      ],
      "type": "VEC3"
    },
    {
      "bufferView": 1,
      "byteOffset": 524256,
      "componentType": 5126,
      "count": 65532,
      "max": [
        0.9998779892921448,
        0.9935299754142761
      ],
      "min": [
        0.00012199999764561653,
        0.00012199999764561653
      ],
      "type": "VEC2"
    },
    {
      "bufferView": 0,
      "byteOffset": 1004628,
      "componentType": 5125,
      "count": 231816,
      "type": "SCALAR"
    },
    {
      "bufferView": 2,
      "byteOffset": 3145536,
      "componentType": 5126,
      "count": 65532,
      "max": [
        6.49515962600708,
        0.04895509034395218,
        4.992832183837891
      ],
      "min": [
        -8.447759628295898,
        -3.091190814971924,
        -3.92627215385437
      ],
      "type": "VEC3"
    },
    {
      "bufferView": 2,
      "byteOffset": 3931920,
      "componentType": 5126,
      "count": 65532,
      "max": [
        0.999999463558197,
        0.9999231696128845,
        0.9999797344207764
      ],
      "min": [
        -0.9999989867210388,
        -1.0,
        -0.9999993443489075
      ],
      "type": "VEC3"
    },
    {
      "bufferView": 1,
      "byteOffset": 1048512,
      "componentType": 5126,
      "count": 65532,
      "max": [
        0.9998779892921448,
        0.9822999835014343
      ],
      "min": [
        0.00012199999764561653,
        0.00012199999764561653
      ],
      "type": "VEC2"
    },
    {
      "bufferView": 0,
      "byteOffset": 1931892,
      "componentType": 5125,
      "count": 199578,
      "type": "SCALAR"
    },
    {
      "bufferView": 2,
      "byteOffset": 4718304,
      "componentType": 5126,
      "count": 65532,
      "max": [
        6.521575927734375,
        0.049591243267059326,
        3.6174683570861816
      ],
      "min": [
        -8.333904266357422,
        -2.9886820316314697,
        -4.2640275955200195
      ],
      "type": "VEC3"
    },
    {
      "bufferView": 2,
      "byteOffset": 5504688,
      "componentType": 5126,
      "count": 65532,
      "max": [
        0.9999968409538269,
        0.9999992847442627,
        0.9999907612800598
      ],
      "min": [
        -0.99998939037323,
        -0.9999998211860657,
        -0.999995768070221
      ],
      "type": "VEC3"
    },
    {
      "bufferView": 1,
      "byteOffset": 1572768,
      "componentType": 5126,
      "count": 65532,
      "max": [
        0.9998779892921448,
        0.9930419921875
      ],
      "min": [
        0.00012199999764561653,
        0.00012199999764561653
      ],
      "type": "VEC2"
    },
    {
      "bufferView": 0,
      "byteOffset": 2730204,
      "componentType": 5125,
      "count": 191250,
      "type": "SCALAR"
    },
    {
      "bufferView": 2,
      "byteOffset": 6291072,
      "componentType": 5126,
      "count": 65533,
      "max": [
        6.443066596984863,
        0.02486834116280079,
        4.910861015319824
      ],
      "min": [
        -8.456002235412598,
        -3.0144004821777344,
        -4.261773586273193
      ],
      "type": "VEC3"
    },
    {
      "bufferView": 2,
      "byteOffset": 7077468,
      "componentType": 5126,
      "count": 65533,
      "max": [
        0.9999996423721313,
        0.9999766945838928,
        0.9999937415122986
      ],
      "min": [
        -0.9999862909317017,
        -0.9999998807907104,
        -0.9999998211860657
      ],
      "type": "VEC3"
    },
    {
      "bufferView": 1,
      "byteOffset": 2097024,
      "componentType": 5126,
      "count": 65533,
      "max": [
        0.9998779892921448,
        0.9905999898910522
      ],
      "min": [
        0.00012199999764561653,
        0.00012199999764561653
      ],
      "type": "VEC2"
    },
    {
      "bufferView": 0,
      "byteOffset": 3495204,
      "componentType": 5125,
      "count": 192867,
      "type": "SCALAR"
    },
    {
      "bufferView": 2,
      "byteOffset": 7863864,
      "componentType": 5126,
      "count": 65532,
      "max": [
        6.473620891571045,
        0.02287231758236885,
        4.910861015319824
      ],
      "min": [
        -7.705475330352783,
        -3.00693678855896,
        -4.249664783477783
      ],
      "type": "VEC3"
    },
    {
      "bufferView": 2,
      "byteOffset": 8650248,
      "componentType": 5126,
      "count": 65532,
      "max": [
        0.9999988079071045,
        0.9999890327453613,
        0.9999985694885254
      ],
      "min": [
        -0.9999948143959045,
        -0.9999997615814209,
        -0.9999995231628418
      ],
      "type": "VEC3"
    },
    {
      "bufferView": 1,
      "byteOffset": 2621288,
      "componentType": 5126,
      "count": 65532,
      "max": [
        0.9998779892921448,
        0.9827880263328552
      ],
      "min": [
        0.00012199999764561653,
        0.00012199999764561653
      ],
      "type": "VEC2"
    },
    {
      "bufferView": 0,
      "byteOffset": 4266672,
      "componentType": 5125,
      "count": 174312,
      "type": "SCALAR"
    },
    {
      "bufferView": 2,
      "byteOffset": 9436632,
      "componentType": 5126,
      "count": 65532,
      "max": [
        5.588568210601807,
        -0.00011248608643654734,
        4.92659330368042
      ],
      "min": [
        -5.79457950592041,
        -2.1980252265930176,
        -4.249664783477783
      ],
      "type": "VEC3"
    },
    {
      "bufferView": 2,
      "byteOffset": 10223016,
      "componentType": 5126,
      "count": 65532,
      "max": [
        0.9999667406082153,
        1.0,
        0.9999991059303284
      ],
      "min": [
        -0.9999944567680359,
        -0.9999997019767761,
        -0.9999995231628418
      ],
      "type": "VEC3"
    },
    {
      "bufferView": 1,
      "byteOffset": 3145544,
      "componentType": 5126,
      "count": 65532,
      "max": [
        0.9998779892921448,
        0.9852290153503418
      ],
      "min": [
        0.00012199999764561653,
        0.00012199999764561653
      ],
      "type": "VEC2"
    },
    {
      "bufferView": 0,
      "byteOffset": 4963920,
      "componentType": 5125,
      "count": 164385,
      "type": "SCALAR"
    },
    {
      "bufferView": 2,
      "byteOffset": 11009400,
      "componentType": 5126,
      "count": 38206,
      "max": [
        6.525741100311279,
        -0.005899331066757441,
        4.877647876739502
      ],
      "min": [
        -8.354543685913086,
        -2.9814558029174805,
        -4.271777629852295
      ],
      "type": "VEC3"
    },
    {
      "bufferView": 2,
      "byteOffset": 11467872,
      "componentType": 5126,
      "count": 38206,
      "max": [
        0.9999977946281433,
        0.9999783635139465,
        0.9999882578849792
      ],
      "min": [
        -0.99998939037323,
        -0.999999463558197,
        -0.9999738931655884
      ],
      "type": "VEC3"
    },
    {
      "bufferView": 1,
      "byteOffset": 3669800,
      "componentType": 5126,
      "count": 38206,
      "max": [
        0.9998779892921448,
        0.9905999898910522
      ],
      "min": [
        0.00012199999764561653,
        0.00012199999764561653
      ],
      "type": "VEC2"
    },
    {
      "bufferView": 0,
      "byteOffset": 5621460,
      "componentType": 5125,
      "count": 89133,
      "type": "SCALAR"
    },
    {
      "bufferView": 2,
      "byteOffset": 11926344,
      "componentType": 5126,
      "count": 152,
      "max": [
        6.609371185302734,
        4.875807762145996,
        3.252993106842041
      ],
      "min": [
        -8.409502029418945,
        -4.79524040222168,
        -0.3808000087738037
      ],
      "type": "VEC3"
    },
    {
      "bufferView": 2,
      "byteOffset": 11928168,
      "componentType": 5126,
      "count": 152,
      "max": [
        0.9999823570251465,
        0.9999994039535522,
        1.0
      ],
      "min": [
        -0.9999651908874512,
        -0.9999770522117615,
        -1.0
      ],
      "type": "VEC3"
    },
    {
      "bufferView": 1,
      "byteOffset": 3975448,
      "componentType": 5126,
      "count": 152,
      "max": [
        0.9960440397262573,
        0.9943445324897766
      ],
      "min": [
        0.0039292993023991585,
        0.003935346379876137
      ],
      "type": "VEC2"
    },
    {
      "bufferView": 0,
      "byteOffset": 5977992,
      "componentType": 5125,
      "count": 180,
      "type": "SCALAR"
    },
    {
      "bufferView": 2,
      "byteOffset": 11929992,
      "componentType": 5126,
      "count": 10,
      "max": [
        6.185059070587158,
        4.376811504364014,
        3.047678232192993
      ],
      "min": [
        -8.085732460021973,
        -3.865603446960449,
        0.1690000295639038
      ],
      "type": "VEC3"
    },
    {
      "bufferView": 2,
      "byteOffset": 11930112,
      "componentType": 5126,
      "count": 10,
      "max": [
        0.5843276977539063,
        0.5562288165092468,
        0.9085831642150879
      ],
      "min": [
        -0.9999775290489197,
        -0.572127103805542,
        1.650432182032091e-07
      ],
      "type": "VEC3"
    },
    {
      "bufferView": 1,
      "byteOffset": 3976664,
      "componentType": 5126,
      "count": 10,
      "max": [
        0.9799998998641968,
        0.9054454565048218
      ],
      "min": [
        0.019999999552965164,
        0.019999999552965164
      ],
      "type": "VEC2"
    },
    {
      "bufferView": 0,
      "byteOffset": 5978712,
      "componentType": 5125,
      "count": 12,
      "type": "SCALAR"
    }
  ],
  "asset": {
    "extras": {
      "author": "Scottish Maritime Museum (https://sketchfab.com/ScottishMaritimeMuseum)",
      "license": "CC0-1.0 (http://creativecommons.org/publicdomain/zero/1.0/)",
      "source": "https://sketchfab.com/3d-models/scottish-boatbuilding-school-workshop-0694871e1e404dd9a0f37687aa3e7f4f",
      "title": "Scottish Boatbuilding School: Workshop"
    },
    "generator": "Sketchfab-12.67.0",
    "version": "2.0"
  },
  "bufferViews": [
    {
      "buffer": 0,
      "byteLength": 5978760,
      "name": "floatBufferViews",
      "target": 34963
    },
    {
      "buffer": 0,
      "byteLength": 3976744,
      "byteOffset": 5978760,
      "byteStride": 8,
      "name": "floatBufferViews",
      "target": 34962
    },
    {
      "buffer": 0,
      "byteLength": 11930232,
      "byteOffset": 9955504,
      "byteStride": 12,
      "name": "floatBufferViews",
      "target": 34962
    }
  ],
  "buffers": [
    {
      "byteLength": 21885736,
      "uri": "scene.bin"
    }
  ],
  "extensionsUsed": [
    "KHR_materials_unlit"
  ],
  "images": [
    {
      "uri": "textures/Material_43_baseColor.png"
    },
    {
      "uri": "textures/Material_41_baseColor.jpeg"
    },
    {
      "uri": "textures/Material_27_baseColor.jpeg"
    }
  ],
  "materials": [
    {
      "doubleSided": true,
      "extensions": {
        "KHR_materials_unlit": {}
      },
      "name": "Material_43",
      "pbrMetallicRoughness": {
        "baseColorTexture": {
          "index": 0
        },
        "metallicFactor": 0.0
      }
    },
    {
      "doubleSided": true,
      "extensions": {
        "KHR_materials_unlit": {}
      },
      "name": "Material_41",
      "pbrMetallicRoughness": {
        "baseColorTexture": {
          "index": 1
        },
        "metallicFactor": 0.0
      }
    },
    {
      "doubleSided": true,
      "extensions": {
        "KHR_materials_unlit": {}
      },
      "name": "Material_27",
      "pbrMetallicRoughness": {
        "baseColorTexture": {
          "index": 2
        },
        "metallicFactor": 0.0
      }
    }
  ],
  "meshes": [
    {
      "name": "default_Material #43_0",
      "primitives": [
        {
          "attributes": {
            "NORMAL": 1,
            "POSITION": 0,
            "TEXCOORD_0": 2
          },
          "indices": 3,
          "material": 0,
          "mode": 4
        }
      ]
    },
    {
      "name": "default_Material #43_0",
      "primitives": [
        {
          "attributes": {
            "NORMAL": 5,
            "POSITION": 4,
            "TEXCOORD_0": 6
          },
          "indices": 7,
          "material": 0,
          "mode": 4
        }
      ]
    },
    {
      "name": "default_Material #43_0",
      "primitives": [
        {
          "attributes": {
            "NORMAL": 9,
            "POSITION": 8,
            "TEXCOORD_0": 10
          },
          "indices": 11,
          "material": 0,
          "mode": 4
        }
      ]
    },
    {
      "name": "default_Material #43_0",
      "primitives": [
        {
          "attributes": {
            "NORMAL": 13,
            "POSITION": 12,
            "TEXCOORD_0": 14
          },
          "indices": 15,
          "material": 0,
          "mode": 4
        }
      ]
    },
    {
      "name": "default_Material #43_0",
      "primitives": [
        {
          "attributes": {
            "NORMAL": 17,
            "POSITION": 16,
            "TEXCOORD_0": 18
          },
          "indices": 19,
          "material": 0,
          "mode": 4
        }
      ]
    },
    {
      "name": "default_Material #43_0",
      "primitives": [
        {
          "attributes": {
            "NORMAL": 21,
            "POSITION": 20,
            "TEXCOORD_0": 22
          },
          "indices": 23,
          "material": 0,
          "mode": 4
        }
      ]
    },
    {
      "name": "default_Material #43_0",
      "primitives": [
        {
          "attributes": {
            "NORMAL": 25,
            "POSITION": 24,
            "TEXCOORD_0": 26
          },
          "indices": 27,
          "material": 0,
          "mode": 4
        }
      ]
    },
    {
      "name": "default_Material #43_0",
      "primitives": [
        {
          "attributes": {
            "NORMAL": 29,
            "POSITION": 28,
            "TEXCOORD_0": 30
          },
          "indices": 31,
          "material": 0,
          "mode": 4
        }
      ]
    },
    {
      "name": "Object005_Material #41_0",
      "primitives": [
        {
          "attributes": {
            "NORMAL": 33,
            "POSITION": 32,
            "TEXCOORD_0": 34
          },
          "indices": 35,
          "material": 1,
          "mode": 4
        }
      ]
    },
    {
      "name": "Object005_Material #27_0",
      "primitives": [
        {
          "attributes": {
            "NORMAL": 37,
            "POSITION": 36,
            "TEXCOORD_0": 38
          },
          "indices": 39,
          "material": 2,
          "mode": 4
        }
      ]
    }
  ],
  "nodes": [
    {
      "children": [
        1
      ],
      "matrix": [
        43.610877990722656,
        0.0,
        0.0,
        0.0,
        0.0,
        9.683560173883755e-15,
        -43.610877990722656,
        0.0,
        0.0,
        43.610877990722656,
        9.683560173883755e-15,
        0.0,
        0.0,
        0.0,
        0.0,
        1.0
      ],
      "name": "Sketchfab_model"
    },
    {
      "children": [
        2
      ],
      "matrix": [
        1.0,
        0.0,
        0.0,
        0.0,
        0.0,
        0.0,
        1.0,
        0.0,
        0.0,
        -1.0,
        0.0,
        0.0,
        0.0,
        0.0,
        0.0,
        1.0
      ],
      "name": "37bcb2f9f7884226bf4abec0ac89ed88.fbx"
    },
    {
      "children": [
        3,
        12
      ],
      "name": "RootNode"
    },
    {
      "children": [
        4,
        5,
        6,
        7,
        8,
        9,
        10,
        11
      ],
      "matrix": [
        0.02539999969303608,
        0.0,
        0.0,
        0.0,
        0.0,
        -0.025399999693036055,
        1.1102692070564637e-09,
        0.0,
        0.0,
        -1.1102692070564637e-09,
        -0.025399999693036055,
        0.0,
        0.0,
        0.0,
        0.0,
        1.0
      ],
      "name": "default"
    },
    {
      "mesh": 0,
      "name": "default_Material #43_0"
    },
    {
      "mesh": 1,
      "name": "default_Material #43_0"
    },
    {
      "mesh": 2,
      "name": "default_Material #43_0"
    },
    {
      "mesh": 3,
      "name": "default_Material #43_0"
    },
    {
      "mesh": 4,
      "name": "default_Material #43_0"
    },
    {
      "mesh": 5,
      "name": "default_Material #43_0"
    },
    {
      "mesh": 6,
      "name": "default_Material #43_0"
    },
    {
      "mesh": 7,
      "name": "default_Material #43_0"
    },
    {
      "children": [
        13,
        14
      ],
      "matrix": [
        0.0262264646589756,
        0.0,
        0.0,
        0.0,
        0.0,
        5.823444983782533e-18,
        -0.0262264646589756,
        0.0,
        0.0,
        0.02539999969303608,
        5.639932896936113e-18,
        0.0,
        0.0,
        -0.003024948760867119,
        0.0,
        1.0
      ],
      "name": "Object005"
    },
    {
      "mesh": 8,
      "name": "Object005_Material #41_0"
    },
    {
      "mesh": 9,
      "name": "Object005_Material #27_0"
    }
  ],
  "samplers": [
    {
      "magFilter": 9729,
      "minFilter": 9987,
      "wrapS": 10497,
      "wrapT": 10497
    }
  ],
  "scene": 0,
  "scenes": [
    {
      "name": "Sketchfab_Scene",
      "nodes": [
        0
      ]
    }
  ],
  "textures": [
    {
      "sampler": 0,
      "source": 0
    },
    {
      "sampler": 0,
      "source": 1
    },
    {
      "sampler": 0,
      "source": 2
    }
  ]
}
