{
  "accessors": [
    {
      "bufferView": 2,
      "componentType": 5126,
      "count": 7507,
      "max": [
        2.3539199829101563,
        3.6314570903778076,
        1.4221299886703491
      ],
      "min": [
        -2.9779469966888428,
        -2.095643997192383,
        -1.5
      ],
      "type": "VEC3"
    },
    {
      "bufferView": 2,
      "byteOffset": 90084,
      "componentType": 5126,
      "count": 7507,
      "max": [
        0.9994781613349915,
        0.9995766878128052,
        0.9997861385345459
      ],
      "min": [
        -0.9997410178184509,
        -0.9998041391372681,
        -0.9999279975891113
      ],
      "type": "VEC3"
    },
    {
      "bufferView": 1,
      "componentType": 5126,
      "count": 7507,
      "max": [
        1.0,
        1.0
      ],
      "min": [
        0.0,
        0.0
      ],
      "type": "VEC2"
    },
    {
      "bufferView": 0,
      "componentType": 5125,
      "count": 22317,
      "type": "SCALAR"
    },
    {
      "bufferView": 2,
      "byteOffset": 180168,
      "componentType": 5126,
      "count": 6643,
      "max": [
        2.3535079956054688,
        3.6314570903778076,
        1.4657599925994873
      ],
      "min": [
        -2.9779469966888428,
        -2.128077983856201,
        -1.3799999952316284
      ],
      "type": "VEC3"
    },
    {
      "bufferView": 2,
      "byteOffset": 259884,
      "componentType": 5126,
      "count": 6643,
      "max": [
        0.9998555183410645,
        0.9997765421867371,
        0.9998599886894226
      ],
      "min": [
        -0.9997662305831909,
        -0.9997442364692688,
        -0.9999279975891113
      ],
      "type": "VEC3"
    },
    {
      "bufferView": 1,
      "byteOffset": 60056,
      "componentType": 5126,
      "count": 6643,
      "max": [
        1.0,
        1.0
      ],
      "min": [
        0.0,
        0.0
      ],
      "type": "VEC2"
    },
    {
      "bufferView": 0,
      "byteOffset": 89268,
      "componentType": 5125,
      "count": 21699,
      "type": "SCALAR"
    },
    {
      "bufferView": 2,
      "byteOffset": 339600,
      "componentType": 5126,
      "count": 5319,
      "max": [
        2.3539199829101563,
        3.628520965576172,
        1.4199999570846558
      ],
      "min": [
        -2.970395088195801,
        -2.0646650791168213,
        -1.5800000429153442
      ],
      "type": "VEC3"
    },
    {
      "bufferView": 2,
      "byteOffset": 403428,
      "componentType": 5126,
      "count": 5319,
      "max": [
        0.9998555183410645,
        0.99990314245224,
        0.9999004602432251
      ],
      "min": [
        -0.9997662305831909,
        -0.9997873306274414,
        -0.9997977614402771
      ],
      "type": "VEC3"
    },
    {
      "bufferView": 1,
      "byteOffset": 113200,
      "componentType": 5126,
      "count": 5319,
      "max": [
        1.0,
        1.0
      ],
      "min": [
        0.0,
        0.0
      ],
      "type": "VEC2"
    },
    {
      "bufferView": 0,
      "byteOffset": 176064,
      "componentType": 5125,
      "count": 18222,
      "type": "SCALAR"
    },
    {
      "bufferView": 2,
      "byteOffset": 467256,
      "componentType": 5126,
      "count": 4802,
      "max": [
        2.3514010906219482,
        3.6314570903778076,
        1.4199999570846558
      ],
      "min": [
        -2.9779469966888428,
        -2.128077983856201,
        -1.5640000104904175
      ],
      "type": "VEC3"
    },
    {
      "bufferView": 2,
      "byteOffset": 524880,
      "componentType": 5126,
      "count": 4802,
      "max": [
        0.9994781613349915,
        0.9995021224021912,
        0.9999434947967529
      ],
      "min": [
        -0.9997662305831909,
        -0.9996034502983093,
        -0.9996358752250671
      ],
      "type": "VEC3"
    },
    {
      "bufferView": 1,
      "byteOffset": 155752,
      "componentType": 5126,
      "count": 4802,
      "max": [
        1.0,
        1.0
      ],
      "min": [
        0.0,
        0.0
      ],
      "type": "VEC2"
    },
    {
      "bufferView": 0,
      "byteOffset": 248952,
      "componentType": 5125,
      "count": 15966,
      "type": "SCALAR"
    }
  ],
  "asset": {
    "extras": {
      "author": "novaquantum11 (https://sketchfab.com/novaquantum11)",
      "license": "CC-BY-SA-4.0 (http://creativecommons.org/licenses/by-sa/4.0/)",
      "source": "https://sketchfab.com/3d-models/lr2-75a1ba6bf6144e3699f20b4bbb5a0bd1",
      "title": "LR2"
    },
    "generator": "Sketchfab-12.74.0",
    "version": "2.0"
  },
  "bufferViews": [
    {
      "buffer": 0,
      "byteLength": 312816,
      "name": "floatBufferViews",
      "target": 34963
    },
    {
      "buffer": 0,
      "byteLength": 194168,
      "byteOffset": 312816,
      "byteStride": 8,
      "name": "floatBufferViews",
      "target": 34962
    },
    {
      "buffer": 0,
      "byteLength": 582504,
      "byteOffset": 506984,
      "byteStride": 12,
      "name": "floatBufferViews",
      "target": 34962
    }
  ],
  "buffers": [
    {
      "byteLength": 1089488,
      "uri": "scene.bin"
    }
  ],
  "extensionsUsed": [
    "KHR_materials_unlit"
  ],
  "images": [
    {
      "uri": "textures/1647243866745_0_baseColor.png"
    },
    {
      "uri": "textures/1647243866745_1_baseColor.png"
    },
    {
      "uri": "textures/1647243866745_2_baseColor.png"
    },
    {
      "uri": "textures/1647243866745_3_baseColor.png"
    }
  ],
  "materials": [
    {
      "doubleSided": true,
      "emissiveTexture": {
        "index": 0
      },
      "extensions": {
        "KHR_materials_unlit": {}
      },
      "name": "1647243866745_0",
      "pbrMetallicRoughness": {
        "baseColorTexture": {
          "index": 0
        },
        "metallicFactor": 0.0
      }
    },
    {
      "doubleSided": true,
      "emissiveTexture": {
        "index": 1
      },
      "extensions": {
        "KHR_materials_unlit": {}
      },
      "name": "1647243866745_1",
      "pbrMetallicRoughness": {
        "baseColorTexture": {
          "index": 1
        },
        "metallicFactor": 0.0
      }
    },
    {
      "doubleSided": true,
      "emissiveTexture": {
        "index": 2
      },
      "extensions": {
        "KHR_materials_unlit": {}
      },
      "name": "1647243866745_2",
      "pbrMetallicRoughness": {
        "baseColorTexture": {
          "index": 2
        },
        "metallicFactor": 0.0
      }
    },
    {
      "doubleSided": true,
      "emissiveTexture": {
        "index": 3
      },
      "extensions": {
        "KHR_materials_unlit": {}
      },
      "name": "1647243866745_3",
      "pbrMetallicRoughness": {
        "baseColorTexture": {
          "index": 3
        },
        "metallicFactor": 0.0
      }
    }
  ],
  "meshes": [
    {
      "name": "Object_0",
      "primitives": [
        {
          "attributes": {
            "NORMAL": 1,
            "POSITION": 0,
            "TEXCOORD_0": 2
          },
          "indices": 3,
          "material": 0,
          "mode": 4
        }
      ]
    },
    {
      "name": "Object_1",
      "primitives": [
        {
          "attributes": {
            "NORMAL": 5,
            "POSITION": 4,
            "TEXCOORD_0": 6
          },
          "indices": 7,
          "material": 1,
          "mode": 4
        }
      ]
    },
    {
      "name": "Object_2",
      "primitives": [
        {
          "attributes": {
            "NORMAL": 9,
            "POSITION": 8,
            "TEXCOORD_0": 10
          },
          "indices": 11,
          "material": 2,
          "mode": 4
        }
      ]
    },
    {
      "name": "Object_3",
      "primitives": [
        {
          "attributes": {
            "NORMAL": 13,
            "POSITION": 12,
            "TEXCOORD_0": 14
          },
          "indices": 15,
          "material": 3,
          "mode": 4
        }
      ]
    }
  ],
  "nodes": [
    {
      "children": [
        1
      ],
      "matrix": [
        1.0,
        0.0,
        0.0,
        0.0,
        0.0,
        2.220446049250313e-16,
        -1.0,
        0.0,
        0.0,
        1.0,
        2.220446049250313e-16,
        0.0,
        0.0,
        0.0,
        0.0,
        1.0
      ],
      "name": "Sketchfab_model"
    },
    {
      "children": [
        2,
        3,
        4,
        5
      ],
      "name": "20220314_131911.obj.cleaner.materialmerger.gles"
    },
    {
      "mesh": 0,
      "name": "Object_2"
    },
    {
      "mesh": 1,
      "name": "Object_3"
    },
    {
      "mesh": 2,
      "name": "Object_4"
    },
    {
      "mesh": 3,
      "name": "Object_5"
    }
  ],
  "samplers": [
    {
      "magFilter": 9729,
      "minFilter": 9987,
      "wrapS": 10497,
      "wrapT": 10497
    }
  ],
  "scene": 0,
  "scenes": [
    {
      "name": "Sketchfab_Scene",
      "nodes": [
        0
      ]
    }
  ],
  "textures": [
    {
      "sampler": 0,
      "source": 0
    },
    {
      "sampler": 0,
      "source": 1
    },
    {
      "sampler": 0,
      "source": 2
    },
    {
      "sampler": 0,
      "source": 3
    }
  ]
}
